<svg xmlns="http://www.w3.org/2000/svg" version="1.1" xmlns:xlink="http://www.w3.org/1999/xlink" width="239" height="176"><svg width="239" height="176" viewBox="0 0 239 176" fill="none" xmlns="http://www.w3.org/2000/svg">
<path d="M138.531 34.7171C138.531 37.3293 138.093 39.7345 137.165 41.9847C136.238 44.2348 134.898 46.2262 133.146 47.9849C131.368 49.7178 129.333 51.0627 127.04 51.942C124.747 52.8214 122.273 53.3128 119.645 53.3128C117.017 53.3128 114.544 52.8731 112.225 51.942C109.932 51.0109 107.871 49.6661 106.093 47.9074C104.341 46.1745 103.001 44.2089 102.1 41.9847C101.198 39.7604 100.734 37.3293 100.734 34.6912C100.734 32.0532 101.172 29.622 102.1 27.3719C103.027 25.1218 104.315 23.1303 106.093 21.4233C107.871 19.6905 109.906 18.3456 112.199 17.4404C114.492 16.5352 116.991 16.0696 119.645 16.0696C122.299 16.0696 124.798 16.5093 127.091 17.4404C129.384 18.3715 131.445 19.6905 133.223 21.4233C134.949 23.1562 136.289 25.1477 137.191 27.3719C138.093 29.622 138.556 32.0273 138.556 34.6653L138.531 34.7171ZM119.619 41.3898C121.397 41.3898 122.84 40.7949 123.922 39.5535C125.004 38.3121 125.571 36.7085 125.571 34.6912C125.571 32.6739 125.03 31.0186 123.922 29.7772C122.814 28.5357 121.397 27.9409 119.619 27.9409C117.842 27.9409 116.399 28.5616 115.291 29.803C114.209 31.0445 113.642 32.6739 113.642 34.6912C113.642 36.7085 114.183 38.3379 115.291 39.5535C116.373 40.7691 117.842 41.3898 119.619 41.3898Z" fill="#1D1D1B" stroke="#1D1D1B" stroke-miterlimit="10"></path>
<path d="M119.594 7.68992C124.978 7.68992 130.054 8.621 134.692 10.4573C139.278 12.2677 143.426 14.9834 146.956 18.4232C150.408 21.863 153.062 25.846 154.865 30.2944C156.669 34.7688 157.596 39.7345 157.596 45.0107C157.596 50.2868 156.669 55.1749 154.84 59.6234C153.01 64.0719 150.305 68.0807 146.827 71.5723C143.297 75.0379 139.175 77.7019 134.537 79.564C129.899 81.4003 124.85 82.3573 119.594 82.3573C114.338 82.3573 109.211 81.4003 104.573 79.564C99.9868 77.7277 95.8387 75.0121 92.2575 71.4688C88.805 68.0807 86.1512 64.1236 84.3477 59.7527C82.57 55.3042 81.6424 50.3644 81.6424 45.0365C81.6424 39.7087 82.5442 34.7429 84.3477 30.2427C86.1255 25.8201 88.805 21.863 92.2832 18.4491C95.813 14.9834 99.9353 12.2936 104.496 10.4573C109.133 8.621 114.209 7.68992 119.594 7.68992ZM119.594 2C113.462 2 107.742 3.0604 102.409 5.15532C97.1012 7.27611 92.3863 10.328 88.3155 14.3627C84.2704 18.3197 81.2044 22.8975 79.1175 28.0702C77.0306 33.2429 76 38.9069 76 44.9589C76 51.0109 77.0306 56.675 79.1175 61.7959C81.2044 66.9427 84.2704 71.4947 88.3155 75.4776C92.4378 79.5382 97.1527 82.6417 102.486 84.7884C107.793 86.9092 113.487 87.9955 119.594 87.9955C125.7 87.9955 131.291 86.9351 136.624 84.7884C141.957 82.6676 146.672 79.6157 150.769 75.6069C154.865 71.5464 157.957 66.9169 160.096 61.7442C162.234 56.5716 163.29 50.9851 163.29 44.9848C163.29 38.9845 162.234 33.3204 160.147 28.1478C158.034 22.9751 154.994 18.3715 150.975 14.3885C146.853 10.3538 142.138 7.30198 136.804 5.18119C131.497 3.08626 125.777 2.02586 119.619 2.02586H119.594V2Z" fill="#1D1D1B" stroke="#1D1D1B" stroke-width="3" stroke-miterlimit="10"></path>
<path d="M52.7047 131.011C52.7047 133.623 52.2667 136.028 51.3392 138.278C50.4116 140.528 49.0719 142.52 47.3199 144.279C45.5421 146.011 43.5067 147.356 41.2137 148.236C38.8949 149.141 36.4472 149.606 33.8193 149.606C31.1913 149.606 28.7179 149.167 26.3991 148.236C24.106 147.305 22.0448 145.96 20.2671 144.201C18.5151 142.468 17.1753 140.502 16.2736 138.278C15.3718 136.054 14.9081 133.623 14.9081 130.985C14.9081 128.347 15.3461 125.916 16.2736 123.665C17.2011 121.415 18.4893 119.424 20.2671 117.717C22.0448 115.984 24.0802 114.639 26.3733 113.734C28.6663 112.829 31.1655 112.363 33.8193 112.363C36.473 112.363 38.9722 112.803 41.2652 113.734C43.5583 114.665 45.6194 115.984 47.3972 117.717C49.1234 119.45 50.4632 121.441 51.3649 123.665C52.2667 125.916 52.7305 128.321 52.7305 130.959L52.7047 131.011ZM33.7935 137.709C35.5713 137.709 37.0141 137.114 38.0962 135.873C39.1783 134.632 39.7451 133.028 39.7451 131.011C39.7451 128.993 39.2041 127.338 38.0962 126.097C36.9883 124.855 35.5713 124.26 33.7935 124.26C32.0157 124.26 30.5729 124.881 29.465 126.122C28.3829 127.364 27.8161 128.993 27.8161 131.011C27.8161 133.028 28.3572 134.657 29.465 135.873C30.5472 137.089 32.0157 137.709 33.7935 137.709Z" fill="#1D1D1B"></path>
<path d="M45.5937 93.6899C50.9785 93.6899 56.0541 94.621 60.6917 96.4573C65.2778 98.2677 69.4259 100.983 72.9556 104.423C76.4081 107.863 79.0619 111.846 80.8654 116.294C82.6689 120.769 83.5964 125.735 83.5964 131.011C83.5964 136.287 82.6689 141.175 80.8396 145.623C79.0103 150.072 76.305 154.081 72.8268 157.572C69.2971 161.038 65.1747 163.702 60.5371 165.564C55.8995 167.4 50.8496 168.357 45.5937 168.357C40.3377 168.357 35.2105 167.4 30.5729 165.564C25.9868 163.728 21.8387 161.012 18.2574 157.469C14.805 154.081 12.1512 150.124 10.3477 145.753C8.56997 141.304 7.64244 136.364 7.64244 131.037C7.64244 125.709 8.5442 120.743 10.3477 116.243C12.1255 111.82 14.805 107.863 18.2832 104.449C21.813 100.983 25.9353 98.2936 30.4956 96.4573C35.1332 94.621 40.2089 93.6899 45.5937 93.6899ZM45.5937 88C39.4617 88 33.742 89.0604 28.4087 91.1553C23.1012 93.2761 18.3863 96.328 14.3155 100.363C10.2704 104.32 7.20444 108.898 5.11751 114.07C3.03058 119.243 2 124.907 2 130.959C2 137.011 3.03058 142.675 5.11751 147.796C7.20444 152.943 10.2704 157.495 14.3155 161.478C18.4378 165.538 23.1527 168.642 28.486 170.788C33.7935 172.909 39.4875 173.995 45.5937 173.995C51.6999 173.995 57.2908 172.935 62.6241 170.788C67.9573 168.668 72.6722 165.616 76.7688 161.607C80.8654 157.546 83.9571 152.917 86.0956 147.744C88.234 142.572 89.2904 136.985 89.2904 130.985C89.2904 124.985 88.234 119.32 86.1471 114.148C84.0344 108.975 80.9942 104.371 76.9749 100.389C72.8526 96.3538 68.1377 93.302 62.8044 91.1812C57.4969 89.0863 51.7772 88.0259 45.6194 88.0259H45.5937V88Z" fill="#1D1D1B" stroke="#1D1D1B" stroke-width="3" stroke-miterlimit="10"></path>
<path d="M193.594 93.6899C198.978 93.6899 204.054 94.621 208.692 96.4573C213.278 98.2677 217.426 100.983 220.956 104.423C224.408 107.863 227.062 111.846 228.865 116.294C230.669 120.769 231.596 125.735 231.596 131.011C231.596 136.287 230.669 141.175 228.84 145.623C227.01 150.072 224.305 154.081 220.827 157.572C217.297 161.038 213.175 163.702 208.537 165.564C203.9 167.4 198.85 168.357 193.594 168.357C188.338 168.357 183.211 167.4 178.573 165.564C173.987 163.728 169.839 161.012 166.257 157.469C162.805 154.081 160.151 150.124 158.348 145.753C156.57 141.304 155.642 136.364 155.642 131.037C155.642 125.709 156.544 120.743 158.348 116.243C160.125 111.82 162.805 107.863 166.283 104.449C169.813 100.983 173.935 98.2936 178.496 96.4573C183.133 94.621 188.209 93.6899 193.594 93.6899ZM193.594 88C187.462 88 181.742 89.0604 176.409 91.1553C171.101 93.2761 166.386 96.328 162.315 100.363C158.27 104.32 155.204 108.898 153.118 114.07C151.031 119.243 150 124.907 150 130.959C150 137.011 151.031 142.675 153.118 147.796C155.204 152.943 158.27 157.495 162.315 161.478C166.438 165.538 171.153 168.642 176.486 170.788C181.793 172.909 187.487 173.995 193.594 173.995C199.7 173.995 205.291 172.935 210.624 170.788C215.957 168.668 220.672 165.616 224.769 161.607C228.865 157.546 231.957 152.917 234.096 147.744C236.234 142.572 237.29 136.985 237.29 130.985C237.29 124.985 236.234 119.32 234.147 114.148C232.034 108.975 228.994 104.371 224.975 100.389C220.853 96.3538 216.138 93.302 210.804 91.1812C205.497 89.0863 199.777 88.0259 193.619 88.0259H193.594V88Z" fill="#1D1D1B" stroke="#1D1D1B" stroke-width="3" stroke-miterlimit="10"></path>
<path d="M226.907 131.011C226.907 133.623 226.469 136.028 225.542 138.278C224.614 140.528 223.274 142.52 221.522 144.279C219.745 146.011 217.709 147.356 215.416 148.236C213.123 149.115 210.65 149.606 208.022 149.606C205.394 149.606 202.92 149.167 200.602 148.236C198.309 147.305 196.247 145.96 194.47 144.201C192.718 142.468 191.378 140.502 190.476 138.278C189.574 136.054 189.111 133.623 189.111 130.985C189.111 128.347 189.549 125.916 190.476 123.665C191.404 121.415 192.692 119.424 194.47 117.717C196.247 115.984 198.283 114.639 200.576 113.734C202.869 112.829 205.368 112.363 208.022 112.363C210.676 112.363 213.175 112.803 215.468 113.734C217.761 114.665 219.822 115.984 221.6 117.717C223.326 119.45 224.666 121.441 225.568 123.665C226.469 125.916 226.933 128.321 226.933 130.959L226.907 131.011ZM207.996 137.709C209.774 137.709 211.217 137.114 212.299 135.873C213.381 134.632 213.948 133.028 213.948 131.011C213.948 128.993 213.407 127.338 212.299 126.097C211.191 124.855 209.774 124.26 207.996 124.26C206.218 124.26 204.775 124.881 203.668 126.122C202.586 127.364 202.019 128.993 202.019 131.011C202.019 133.028 202.56 134.657 203.668 135.873C204.75 137.089 206.218 137.709 207.996 137.709Z" fill="#1D1D1B"></path>
</svg><style>@media (prefers-color-scheme: light) { :root { filter: none; } }
@media (prefers-color-scheme: dark) { :root { filter: invert(100%); } }
</style></svg>